<?xml version="1.0" encoding="UTF-8"?>
<svg width="700pt" height="700pt" version="1.1" viewBox="0 0 700 700" xmlns="http://www.w3.org/2000/svg" xmlns:xlink="http://www.w3.org/1999/xlink">
 <g>
  <path d="m169.12 110.88c15.121-4.4805 31.922-4.4805 48.16-2.2383 16.801 2.2383 33.039 7.2812 48.719 13.441 29.68 11.762 57.121 28 81.762 48.16 52.641 43.68 90.719 101.92 114.24 165.76 8.9609 24.641 15.68 49.281 21.281 75.039-4.4805-6.1641-10.082-12.883-15.68-19.602-17.359-20.719-36.398-40.879-56.559-59.359-3.9219-3.3594-10.078-2.8008-14.559-1.1211-2.2383 0.55859-10.078 5.0391-6.1602 8.3984 19.039 17.922 37.52 36.961 54.32 57.121 8.3984 10.078 16.238 20.16 24.078 30.238 3.9219 5.0391 7.8398 10.078 11.199 15.68 2.2383 2.8008 3.9219 5.6016 6.1602 8.3984 1.1211 2.2383 3.9219 4.4805 2.8008 6.7188-0.55859 2.2383 0.55859 3.3594 2.2383 4.4805 2.2383 1.6797 7.2812 2.2383 8.9609 2.2383 5.0391-0.55859 10.641-2.2383 12.879-6.7188 20.719-40.32 31.922-85.121 32.48-130.48 0-1.6797-2.8008-2.8008-3.9219-3.3594-2.8008-0.55859-5.6016-0.55859-8.3984 0-3.3594 1.125-9.5195 3.3633-9.5195 7.8438-0.55859 29.68-5.6016 58.801-15.121 86.801-11.762-63.84-34.16-126-70.559-179.76-36.961-54.32-89.039-100.24-150.08-125.44-40.32-16.238-84-24.078-126.56-11.762-2.8008 1.1211-9.5195 4.4805-6.1602 8.3984 2.7969 4.4844 10.637 2.2461 13.996 1.125z" fill="#221f20"/>
  <g>
   <use x="70" y="644" xlink:href="#t"/>
   <use x="90.550781" y="644" xlink:href="#e"/>
   <use x="104.359375" y="644" xlink:href="#a"/>
   <use x="123.347656" y="644" xlink:href="#i"/>
   <use x="142.242188" y="644" xlink:href="#d"/>
   <use x="155.628906" y="644" xlink:href="#a"/>
   <use x="174.617188" y="644" xlink:href="#c"/>
   <use x="204.410156" y="644" xlink:href="#h"/>
   <use x="224.453125" y="644" xlink:href="#g"/>
   <use x="252.453125" y="644" xlink:href="#f"/>
   <use x="271.070312" y="644" xlink:href="#s"/>
   <use x="280.671875" y="644" xlink:href="#c"/>
   <use x="300.710938" y="644" xlink:href="#c"/>
   <use x="320.757812" y="644" xlink:href="#b"/>
   <use x="70" y="672" xlink:href="#r"/>
   <use x="82.183594" y="672" xlink:href="#e"/>
   <use x="95.992188" y="672" xlink:href="#b"/>
   <use x="115.226562" y="672" xlink:href="#q"/>
   <use x="154.152344" y="672" xlink:href="#d"/>
   <use x="167.535156" y="672" xlink:href="#p"/>
   <use x="187.46875" y="672" xlink:href="#a"/>
   <use x="216.207031" y="672" xlink:href="#o"/>
   <use x="239.640625" y="672" xlink:href="#b"/>
   <use x="258.878906" y="672" xlink:href="#n"/>
   <use x="278.8125" y="672" xlink:href="#m"/>
   <use x="308.492188" y="672" xlink:href="#l"/>
   <use x="329.015625" y="672" xlink:href="#e"/>
   <use x="342.820312" y="672" xlink:href="#b"/>
   <use x="362.058594" y="672" xlink:href="#k"/>
   <use x="371.65625" y="672" xlink:href="#a"/>
   <use x="390.648438" y="672" xlink:href="#j"/>
   <use x="407.242188" y="672" xlink:href="#d"/>
  </g>
 </g>
</svg>
