<?xml version="1.0" encoding="UTF-8"?>
<svg width="700pt" height="700pt" version="1.1" viewBox="0 0 700 700" xmlns="http://www.w3.org/2000/svg" xmlns:xlink="http://www.w3.org/1999/xlink">
 <defs>
  <symbol id="w" overflow="visible">
   <path d="m20.125-1.2031c-1.0312 0.54297-2.1094 0.94922-3.2344 1.2188s-2.3047 0.40625-3.5312 0.40625c-3.6484 0-6.5391-1.0156-8.6719-3.0469-2.125-2.0391-3.1875-4.8125-3.1875-8.3125s1.0625-6.2656 3.1875-8.2969c2.1328-2.0391 5.0234-3.0625 8.6719-3.0625 1.2266 0 2.4062 0.13672 3.5312 0.40625 1.125 0.27344 2.2031 0.67969 3.2344 1.2188v4.5312c-1.043-0.70703-2.0742-1.2266-3.0938-1.5625-1.0234-0.33203-2.0898-0.5-3.2031-0.5-2.0234 0-3.6094 0.64844-4.7656 1.9375-1.1562 1.293-1.7344 3.0703-1.7344 5.3281 0 2.2617 0.57812 4.0391 1.7344 5.3281 1.1562 1.293 2.7422 1.9375 4.7656 1.9375 1.1133 0 2.1797-0.16406 3.2031-0.5 1.0195-0.33203 2.0508-0.85156 3.0938-1.5625z"/>
  </symbol>
  <symbol id="f" overflow="visible">
   <path d="m14.734-11.953c-0.46094-0.21875-0.91797-0.37891-1.375-0.48438-0.46094-0.10156-0.91797-0.15625-1.375-0.15625-1.3438 0-2.3828 0.4375-3.1094 1.3125-0.73047 0.86719-1.0938 2.1016-1.0938 3.7031v7.5781h-5.25v-16.438h5.25v2.7031c0.66406-1.0703 1.4375-1.8516 2.3125-2.3438 0.88281-0.5 1.9375-0.75 3.1562-0.75 0.17578 0 0.36328 0.011719 0.5625 0.03125 0.20703 0.011719 0.50781 0.042969 0.90625 0.09375z"/>
  </symbol>
  <symbol id="a" overflow="visible">
   <path d="m18.922-8.2656v1.5h-12.281c0.13281 1.2305 0.58203 2.1562 1.3438 2.7812 0.75781 0.61719 1.8203 0.92188 3.1875 0.92188 1.1133 0 2.25-0.16016 3.4062-0.48438 1.1562-0.33203 2.3438-0.83203 3.5625-1.5v4.0469c-1.2422 0.46875-2.4805 0.82422-3.7188 1.0625-1.2422 0.23828-2.4805 0.35938-3.7188 0.35938-2.9805 0-5.293-0.75391-6.9375-2.2656-1.6484-1.5078-2.4688-3.6289-2.4688-6.3594 0-2.6758 0.80469-4.7812 2.4219-6.3125 1.6133-1.5391 3.8438-2.3125 6.6875-2.3125 2.582 0 4.6445 0.78125 6.1875 2.3438 1.5508 1.5547 2.3281 3.625 2.3281 6.2188zm-5.3906-1.7344c0-1-0.29297-1.8047-0.875-2.4219-0.58594-0.61328-1.3438-0.92188-2.2812-0.92188-1.0234 0-1.8516 0.28906-2.4844 0.85938-0.63672 0.57422-1.0312 1.4023-1.1875 2.4844z"/>
  </symbol>
  <symbol id="e" overflow="visible">
   <path d="m9.8906-7.3906c-1.0938 0-1.918 0.1875-2.4688 0.5625-0.55469 0.36719-0.82812 0.91406-0.82812 1.6406 0 0.65625 0.21875 1.1797 0.65625 1.5625 0.44531 0.375 1.0664 0.5625 1.8594 0.5625 0.98828 0 1.8203-0.35156 2.5-1.0625 0.67578-0.70703 1.0156-1.5977 1.0156-2.6719v-0.59375zm8.0156-1.9844v9.375h-5.2812v-2.4375c-0.71094 1-1.5078 1.7305-2.3906 2.1875-0.875 0.44531-1.9453 0.67188-3.2031 0.67188-1.7109 0-3.0938-0.49219-4.1562-1.4844-1.0547-0.98828-1.5781-2.2734-1.5781-3.8594 0-1.9258 0.66016-3.3359 1.9844-4.2344 1.3203-0.90625 3.3984-1.3594 6.2344-1.3594h3.1094v-0.42188c0-0.82031-0.32812-1.4258-0.98438-1.8125-0.65625-0.39453-1.6836-0.59375-3.0781-0.59375-1.125 0-2.1719 0.11719-3.1406 0.34375-0.96875 0.23047-1.8672 0.57031-2.6875 1.0156v-4c1.125-0.28125 2.25-0.48828 3.375-0.625 1.1328-0.14453 2.2695-0.21875 3.4062-0.21875 2.9688 0 5.1094 0.58594 6.4219 1.75 1.3125 1.168 1.9688 3.0703 1.9688 5.7031z"/>
  </symbol>
  <symbol id="d" overflow="visible">
   <path d="m8.2656-21.094v4.6562h5.4062v3.7656h-5.4062v6.9688c0 0.76172 0.14844 1.2773 0.45312 1.5469 0.30078 0.27344 0.89844 0.40625 1.7969 0.40625h2.7031v3.75h-4.5c-2.0742 0-3.5469-0.42969-4.4219-1.2969-0.86719-0.86328-1.2969-2.332-1.2969-4.4062v-6.9688h-2.6094v-3.7656h2.6094v-4.6562z"/>
  </symbol>
  <symbol id="c" overflow="visible">
   <path d="m13.703-14.031v-8.7969h5.2812v22.828h-5.2812v-2.375c-0.71875 0.96875-1.5156 1.6797-2.3906 2.125s-1.8828 0.67188-3.0156 0.67188c-2.0312 0-3.6992-0.80078-5-2.4062-1.3047-1.6133-1.9531-3.6875-1.9531-6.2188s0.64844-4.5977 1.9531-6.2031c1.3008-1.6133 2.9688-2.4219 5-2.4219 1.125 0 2.125 0.23047 3 0.6875 0.88281 0.44922 1.6875 1.1523 2.4062 2.1094zm-3.4688 10.641c1.125 0 1.9844-0.41016 2.5781-1.2344 0.59375-0.82031 0.89062-2.0156 0.89062-3.5781s-0.29688-2.7539-0.89062-3.5781c-0.59375-0.82031-1.4531-1.2344-2.5781-1.2344-1.1172 0-1.9688 0.41406-2.5625 1.2344-0.58594 0.82422-0.875 2.0156-0.875 3.5781s0.28906 2.7578 0.875 3.5781c0.59375 0.82422 1.4453 1.2344 2.5625 1.2344z"/>
  </symbol>
  <symbol id="j" overflow="visible">
   <path d="m11.266-3.3906c1.125 0 1.9844-0.41016 2.5781-1.2344 0.59375-0.82031 0.89062-2.0156 0.89062-3.5781s-0.29688-2.7539-0.89062-3.5781c-0.59375-0.82031-1.4531-1.2344-2.5781-1.2344s-1.9922 0.41797-2.5938 1.25c-0.59375 0.82422-0.89062 2.0117-0.89062 3.5625 0 1.5547 0.29688 2.7461 0.89062 3.5781 0.60156 0.82422 1.4688 1.2344 2.5938 1.2344zm-3.4844-10.641c0.71875-0.95703 1.5156-1.6602 2.3906-2.1094 0.88281-0.45703 1.8984-0.6875 3.0469-0.6875 2.0195 0 3.6797 0.80859 4.9844 2.4219 1.3008 1.6055 1.9531 3.6719 1.9531 6.2031s-0.65234 4.6055-1.9531 6.2188c-1.3047 1.6055-2.9648 2.4062-4.9844 2.4062-1.1484 0-2.1641-0.22656-3.0469-0.67188-0.875-0.45703-1.6719-1.1641-2.3906-2.125v2.375h-5.25v-22.828h5.25z"/>
  </symbol>
  <symbol id="i" overflow="visible">
   <path d="m0.35938-16.438h5.2656l4.4062 11.156 3.7656-11.156h5.25l-6.9062 18c-0.69922 1.8203-1.5117 3.0977-2.4375 3.8281-0.92969 0.72656-2.1484 1.0938-3.6562 1.0938h-3.0469v-3.4531h1.6562c0.88281 0 1.5312-0.14062 1.9375-0.42188s0.72266-0.79297 0.95312-1.5312l0.14062-0.45312z"/>
  </symbol>
  <symbol id="h" overflow="visible">
   <path d="m16.047-3.9844h-8.8281l-1.3906 3.9844h-5.6875l8.125-21.906h6.7344l8.1094 21.906h-5.6875zm-7.4219-4.0625h6l-2.9844-8.7188z"/>
  </symbol>
  <symbol id="v" overflow="visible">
   <path d="m2.5312-16.438h5.25v16.438h-5.25zm0-6.3906h5.25v4.2812h-5.25z"/>
  </symbol>
  <symbol id="g" overflow="visible">
   <path d="m19.047-10v10h-5.2812v-7.6562c0-1.4141-0.03125-2.3945-0.09375-2.9375-0.0625-0.53906-0.17188-0.9375-0.32812-1.1875-0.21094-0.34375-0.49219-0.60938-0.84375-0.79688-0.35547-0.1875-0.75781-0.28125-1.2031-0.28125-1.0938 0-1.9531 0.42188-2.5781 1.2656s-0.9375 2.0156-0.9375 3.5156v8.0781h-5.25v-16.438h5.25v2.4062c0.78906-0.95703 1.6289-1.6602 2.5156-2.1094 0.89453-0.45703 1.8789-0.6875 2.9531-0.6875 1.8945 0 3.332 0.58594 4.3125 1.75 0.98828 1.1562 1.4844 2.8516 1.4844 5.0781z"/>
  </symbol>
  <symbol id="u" overflow="visible">
   <path d="m10.781-12.188c1.1875 0 2.0352-0.21875 2.5469-0.65625 0.50781-0.44531 0.76562-1.1758 0.76562-2.1875 0-0.98828-0.25781-1.6953-0.76562-2.125-0.51172-0.4375-1.3594-0.65625-2.5469-0.65625h-2.375v5.625zm-2.375 3.8906v8.2969h-5.6406v-21.906h8.625c2.8828 0 5 0.48438 6.3438 1.4531s2.0156 2.5 2.0156 4.5938c0 1.4492-0.35156 2.6367-1.0469 3.5625-0.69922 0.92969-1.7578 1.6172-3.1719 2.0625 0.78125 0.17969 1.4727 0.57812 2.0781 1.2031 0.61328 0.61719 1.2344 1.5547 1.8594 2.8125l3.0625 6.2188h-6.0156l-2.6719-5.4375c-0.53125-1.1016-1.0742-1.8516-1.625-2.25-0.55469-0.40625-1.293-0.60938-2.2188-0.60938z"/>
  </symbol>
  <symbol id="t" overflow="visible">
   <path d="m13.703-2.7812c-0.71875 0.96094-1.5156 1.6641-2.3906 2.1094-0.875 0.44922-1.8828 0.67188-3.0156 0.67188-2.0117 0-3.6719-0.78516-4.9844-2.3594-1.3125-1.582-1.9688-3.5977-1.9688-6.0469 0-2.457 0.65625-4.4688 1.9688-6.0312 1.3125-1.5703 2.9727-2.3594 4.9844-2.3594 1.1328 0 2.1406 0.22656 3.0156 0.67188 0.875 0.44922 1.6719 1.1562 2.3906 2.125v-2.4375h5.2812v14.781c0 2.6328-0.83594 4.6484-2.5 6.0469-1.668 1.3945-4.0859 2.0938-7.25 2.0938-1.0312 0-2.0273-0.078125-2.9844-0.23438-0.96094-0.15625-1.9219-0.39844-2.8906-0.71875v-4.0938c0.91406 0.53125 1.8125 0.92188 2.6875 1.1719 0.88281 0.25781 1.7734 0.39062 2.6719 0.39062 1.7188 0 2.9766-0.375 3.7812-1.125 0.80078-0.75 1.2031-1.9258 1.2031-3.5312zm-3.4688-10.234c-1.0859 0-1.9297 0.40234-2.5312 1.2031-0.60547 0.80469-0.90625 1.9375-0.90625 3.4062 0 1.5117 0.28906 2.6562 0.875 3.4375 0.58203 0.77344 1.4375 1.1562 2.5625 1.1562 1.1016 0 1.957-0.39844 2.5625-1.2031 0.60156-0.80078 0.90625-1.9297 0.90625-3.3906 0-1.4688-0.30469-2.6016-0.90625-3.4062-0.60547-0.80078-1.4609-1.2031-2.5625-1.2031z"/>
  </symbol>
  <symbol id="s" overflow="visible">
   <path d="m2.5312-22.828h5.25v22.828h-5.25z"/>
  </symbol>
  <symbol id="b" overflow="visible">
   <path d="m10.344-13.078c-1.168 0-2.0586 0.42188-2.6719 1.2656-0.60547 0.83594-0.90625 2.0391-0.90625 3.6094 0 1.5742 0.30078 2.7812 0.90625 3.625 0.61328 0.83594 1.5039 1.25 2.6719 1.25 1.1445 0 2.0195-0.41406 2.625-1.25 0.60156-0.84375 0.90625-2.0508 0.90625-3.625 0-1.5703-0.30469-2.7734-0.90625-3.6094-0.60547-0.84375-1.4805-1.2656-2.625-1.2656zm0-3.75c2.8203 0 5.0234 0.76562 6.6094 2.2969 1.5938 1.5234 2.3906 3.6328 2.3906 6.3281 0 2.6992-0.79688 4.8125-2.3906 6.3438-1.5859 1.5234-3.7891 2.2812-6.6094 2.2812-2.8359 0-5.0547-0.75781-6.6562-2.2812-1.5938-1.5312-2.3906-3.6445-2.3906-6.3438 0-2.6953 0.79688-4.8047 2.3906-6.3281 1.6016-1.5312 3.8203-2.2969 6.6562-2.2969z"/>
  </symbol>
  <symbol id="r" overflow="visible">
   <path d="m13.344-22.828v3.4531h-2.9062c-0.75 0-1.2734 0.13672-1.5625 0.40625-0.29297 0.26172-0.4375 0.72656-0.4375 1.3906v1.1406h4.4844v3.7656h-4.4844v12.672h-5.25v-12.672h-2.6094v-3.7656h2.6094v-1.1406c0-1.7891 0.49219-3.1133 1.4844-3.9688 1-0.85156 2.5469-1.2812 4.6406-1.2812z"/>
  </symbol>
  <symbol id="q" overflow="visible">
   <path d="m17.75-13.703c0.66406-1.0195 1.457-1.7969 2.375-2.3281 0.91406-0.53125 1.9219-0.79688 3.0156-0.79688 1.8828 0 3.3203 0.58594 4.3125 1.75 0.98828 1.1562 1.4844 2.8516 1.4844 5.0781v10h-5.2812v-8.5625c0.007812-0.13281 0.015625-0.26953 0.015625-0.40625v-0.57812c0-1.1641-0.17188-2.0078-0.51562-2.5312-0.33594-0.51953-0.88281-0.78125-1.6406-0.78125-1 0-1.7734 0.41406-2.3125 1.2344-0.54297 0.8125-0.82422 2-0.84375 3.5625v8.0625h-5.2812v-8.5625c0-1.8203-0.15625-2.9922-0.46875-3.5156-0.3125-0.51953-0.87109-0.78125-1.6719-0.78125-1.0117 0-1.793 0.41406-2.3438 1.2344-0.54297 0.82422-0.8125 2.0078-0.8125 3.5469v8.0781h-5.2812v-16.438h5.2812v2.4062c0.64453-0.92578 1.3828-1.625 2.2188-2.0938 0.83203-0.46875 1.7539-0.70312 2.7656-0.70312 1.1328 0 2.1328 0.27734 3 0.82812 0.875 0.54297 1.5352 1.3086 1.9844 2.2969z"/>
  </symbol>
  <symbol id="p" overflow="visible">
   <path d="m19.047-10v10h-5.2812v-7.625c0-1.4375-0.03125-2.4258-0.09375-2.9688-0.0625-0.53906-0.17188-0.9375-0.32812-1.1875-0.21094-0.34375-0.49219-0.60938-0.84375-0.79688-0.35547-0.1875-0.75781-0.28125-1.2031-0.28125-1.0938 0-1.9531 0.42188-2.5781 1.2656s-0.9375 2.0156-0.9375 3.5156v8.0781h-5.25v-22.828h5.25v8.7969c0.78906-0.95703 1.6289-1.6602 2.5156-2.1094 0.89453-0.45703 1.8789-0.6875 2.9531-0.6875 1.8945 0 3.332 0.58594 4.3125 1.75 0.98828 1.1562 1.4844 2.8516 1.4844 5.0781z"/>
  </symbol>
  <symbol id="o" overflow="visible">
   <path d="m2.7656-21.906h6.2969l7.9688 15.031v-15.031h5.3594v21.906h-6.3125l-7.9688-15.031v15.031h-5.3438z"/>
  </symbol>
  <symbol id="n" overflow="visible">
   <path d="m2.3438-6.3906v-10.047h5.2812v1.6562c0 0.88672-0.007812 2-0.015625 3.3438-0.011719 1.3438-0.015625 2.2422-0.015625 2.6875 0 1.3242 0.035156 2.2773 0.10938 2.8594 0.070313 0.58594 0.1875 1.0078 0.34375 1.2656 0.21875 0.34375 0.5 0.60938 0.84375 0.79688 0.35156 0.1875 0.75391 0.28125 1.2031 0.28125 1.0938 0 1.9531-0.42188 2.5781-1.2656s0.9375-2.0078 0.9375-3.5v-8.125h5.2656v16.438h-5.2656v-2.375c-0.79297 0.96094-1.6328 1.668-2.5156 2.125-0.88672 0.44531-1.8594 0.67188-2.9219 0.67188-1.8984 0-3.3438-0.57812-4.3438-1.7344-0.99219-1.1641-1.4844-2.8594-1.4844-5.0781z"/>
  </symbol>
  <symbol id="m" overflow="visible">
   <path d="m2.7656-21.906h9.375c2.7812 0 4.9141 0.62109 6.4062 1.8594 1.5 1.2422 2.25 3 2.25 5.2812 0 2.3047-0.75 4.0742-2.25 5.3125-1.4922 1.2422-3.625 1.8594-6.4062 1.8594h-3.7344v7.5938h-5.6406zm5.6406 4.0938v6.125h3.125c1.0938 0 1.9375-0.26562 2.5312-0.79688 0.60156-0.53906 0.90625-1.3008 0.90625-2.2812 0-0.96875-0.30469-1.7188-0.90625-2.25-0.59375-0.53125-1.4375-0.79688-2.5312-0.79688z"/>
  </symbol>
  <symbol id="l" overflow="visible">
   <path d="m2.5312-16.438h5.25v16.141c0 2.1953-0.53125 3.875-1.5938 5.0312-1.0547 1.1641-2.5859 1.75-4.5938 1.75h-2.5938v-3.4531h0.90625c1 0 1.6875-0.22656 2.0625-0.67188 0.375-0.44922 0.5625-1.3359 0.5625-2.6562zm0-6.3906h5.25v4.2812h-5.25z"/>
  </symbol>
  <symbol id="k" overflow="visible">
   <path d="m15.797-15.922v4.2812c-0.71094-0.48828-1.4219-0.84766-2.1406-1.0781-0.71875-0.23828-1.4648-0.35938-2.2344-0.35938-1.4688 0-2.6172 0.43359-3.4375 1.2969-0.8125 0.85547-1.2188 2.0469-1.2188 3.5781 0 1.543 0.40625 2.7422 1.2188 3.5938 0.82031 0.85547 1.9688 1.2812 3.4375 1.2812 0.8125 0 1.5859-0.11719 2.3281-0.35938 0.73828-0.25 1.4219-0.61328 2.0469-1.0938v4.2969c-0.82422 0.30469-1.6562 0.52344-2.5 0.67188-0.84375 0.15625-1.6953 0.23438-2.5469 0.23438-2.9609 0-5.2773-0.75781-6.9531-2.2812-1.668-1.5195-2.5-3.6328-2.5-6.3438 0-2.707 0.83203-4.8203 2.5-6.3438 1.6758-1.5195 3.9922-2.2812 6.9531-2.2812 0.86328 0 1.7109 0.078125 2.5469 0.23438 0.83203 0.14844 1.6641 0.37109 2.5 0.67188z"/>
  </symbol>
 </defs>
 <g>
  <path d="m281.5 550.39c-1.2031 0.60156-1.8008 1.8008-0.60156 3.0039 0.60156 0.60156 0.60156 1.2031 1.2031 1.8008 0 0.60156 0 0.60156-0.60156 1.2031h-0.60156c-3.0039-3.0039-5.4062-6.0078-9.0117-8.4102-1.8008-3.0039-4.207-4.207-6.6094-6.6094-1.2031-1.2031-2.4023-1.8008-3.0039-3.0039-1.2031-1.2031-3.0039-2.4023-4.207-3.6055-1.2031-1.8008-3.0039-3.0039-4.8086-4.207-1.2031-0.60156-2.4023-1.8008-3.6055-3.6055-0.60156-0.60156-0.60156-1.2031-1.2031-1.2031-2.4023-0.60156-3.6055-3.0039-5.4062-5.4062-1.2031-1.8008-3.0039-4.207-4.8086-6.0078-1.8008-2.4023-3.6055-4.8086-4.8086-7.2109-1.2031-1.8008-2.4023-3.6055-4.207-4.8086-0.60156-0.60156-1.8008-1.2031-1.8008-2.4023-4.207-6.6094-8.4102-13.219-12.617-19.828-2.4023-3.6055-4.207-7.8125-6.0078-12.016-0.60156-1.2031-0.60156-1.8008-1.2031-3.0039-2.4023-3.0039-4.207-6.6094-6.0078-10.215-4.8047-7.2109-9.0117-14.422-12.617-22.234-0.60156-1.2031-1.2031-2.4023-1.8008-3.6055-1.8008-3.6055-3.6055-6.6094-4.8086-10.816-0.60156-2.4023-2.4023-4.207-3.0039-6.6094-0.60156-2.4023-0.60156-4.8086-1.8008-6.6094-3.0039-7.8125-4.207-16.223-6.0078-24.035-0.60156-4.8086-1.8008-9.6133-2.4023-13.82-0.60156-3.6055 0-7.8125-0.60156-12.016 0-3.6055-0.60156-7.2109 0-11.418 0.60156-3.6055 1.2031-6.6094 1.8008-10.215 0-0.60156 0.60156-1.8008 0.60156-2.4023 0-1.8008-0.60156-3.6055-0.60156-4.8086 0-1.8008 1.2031-3.0039 1.2031-4.8086-0.60156-3.6055 0.60156-7.2109 1.8008-10.215 1.8008-5.4062 3.6055-10.816 4.8086-16.824 0-1.2031 0.60156-2.4023 1.2031-3.6055 2.4023-5.4062 4.207-11.418 6.6094-16.824 3.0039-6.6094 6.0078-12.617 9.6133-18.625 0.60156-1.2031 1.8008-3.0039 2.4023-4.207 0.60156-3.0039 2.4023-6.0078 4.8086-8.4102 0.60156-0.60156 1.2031-1.8008 1.8008-2.4023 0.60156-0.60156 0.60156-1.8008 1.2031-2.4023 1.8008-2.4023 3.6055-4.8086 4.8086-7.2109 1.8008-2.4023 2.4023-5.4062 4.207-7.2109 1.2031-1.2031 1.8008-3.0039 2.4023-4.207 1.8008-3.6055 3.6055-6.6094 6.6094-9.6133 4.207-4.8086 7.8125-10.215 10.816-15.621 0.60156-0.60156 0.60156-1.8008 1.2031-1.8008 3.0039-2.4023 4.8086-5.4062 6.6094-7.8125 1.2031-1.2031 1.8008-2.4023 3.0039-3.0039 2.4023-2.4023 4.207-4.8086 6.6094-6.6094 0.60156-0.60156 1.2031-1.2031 1.8008-1.8008 1.8008-1.8008 4.207-3.6055 6.0078-5.4062 1.2031-1.8008 3.6055-3.6055 5.4062-4.8086 3.0039-2.4023 6.6094-5.4062 9.6133-7.8125 3.0039-2.4023 5.4062-4.207 8.4102-6.6094 1.2031-0.60156 2.4023-1.8008 3.6055-2.4023 2.4023-1.2031 4.8086-3.0039 6.6094-5.4062 0-0.60156 0.60156-0.60156 1.2031-0.60156 4.207-2.4023 7.2109-5.4062 11.418-7.2109 4.8086-1.8008 9.0117-4.8086 13.82-7.2109 9.6133-4.8086 19.227-9.0117 30.043-12.617 6.6094-2.4023 13.219-4.207 19.828-4.8086 1.2031 0 3.0039-0.60156 4.207-1.2031 1.2031-0.60156 1.8008-0.60156 3.0039-0.60156h1.2031c3.6055-1.8008 8.4102-1.2031 12.016-3.6055 0-0.60156 0-1.2031-0.60156-1.8008-1.8008-0.60156-3.0039-1.8008-4.8086-2.4023-4.207-1.8008-12.016-4.8086-16.223-7.2109-1.2031-0.60156-1.8008-0.60156-3.0039-1.2031s-2.4023-0.60156-3.6055-1.2031c-4.8086-2.4023-9.0117-4.8086-14.422-6.0078-3.0039-1.2031-4.8086-3.0039-7.2109-4.8086-1.2031-0.60156-1.8008-1.8008-3.0039-2.4023-3.6055-2.4023-7.2109-5.4062-9.6133-8.4102-1.2031-1.8008-3.0039-3.6055-4.207-5.4062-0.60156-0.60156-1.2031-1.2031-1.2031-1.8008 0-1.8008-1.2031-3.6055-2.4023-4.8086-0.60156-0.60156-1.2031-1.8008-2.4023-3.0039-0.60156-0.60156-0.60156-1.8008-0.60156-3.0039s0-1.8008-1.2031-3.0039c-1.8008-1.8008-3.0039-3.6055-4.8086-6.0078-1.2031-1.8008-1.8008-3.0039-1.8008-5.4062 0-1.8008-0.60156-3.6055-1.8008-5.4062-0.60156-1.2031-1.2031-3.0039-1.8008-4.207-0.60156-1.2031-1.2031-2.4023-1.8008-4.207-2.4062-3.0039-3.0078-4.8086-4.2109-7.2109-0.60156-1.2031-0.60156-3.0039-1.8008-4.207-1.2031-2.4023-1.8008-4.207-1.8008-7.2109v-2.4023s0.60156-0.60156 1.2031-0.60156h1.2031c0.60156 0.60156 1.2031 0.60156 2.4023 1.2031 6.6094 1.8008 12.016 6.0078 17.426 9.0117 3.0039 1.2031 5.4062 3.0039 7.8125 5.4062 3.0039 3.0039 6.6094 4.8086 10.215 7.2109 0.59375 1.2031 1.7969 1.2031 2.3945 1.8047 4.207 3.6055 8.4102 6.0078 13.219 9.6133 4.207 3.0039 8.4102 6.0078 13.219 8.4102 1.8008 1.2031 4.207 2.4023 6.6094 3.6055 4.207 1.8008 8.4102 4.207 12.016 6.0078 8.4102 3.6055 16.824 8.4102 25.234 11.418 2.4023 0.60156 4.8086 2.4023 7.8125 2.4023 0.60156 0 0.60156 0.60156 1.2031 0.60156 5.4062 3.0039 10.816 4.8086 16.223 7.2109 1.2031 0.60156 1.8008 0.60156 3.0039 1.2031 3.6055 1.8008 7.2109 3.0039 10.816 4.207 1.8008 0.60156 3.6055 1.2031 6.0078 1.8008 1.2031 0.60156 2.4023 0.60156 3.6055 1.2031 1.8008 0.60156 4.207 1.2031 6.0078 1.8008 1.2031 0.60156 2.4023 0.60156 3.6055 1.2031 4.207 1.2031 9.0117 2.4023 13.219 3.6055 4.207 1.2031 9.0117 2.4023 13.219 3.6055 3.0039 1.2031 5.4062 1.2031 8.4102 2.4023 1.2031 0.60156 2.4023 0 3.6055 0 6.0078-1.8008 12.617-4.207 19.227-5.4062 0.60156 0 1.8008-0.60156 2.4023-0.60156 1.2031 0 2.4023 0 3.0039 1.2031 0.60156 0.60156 1.2031 1.2031 1.2031 1.8008 0.60156 0.60156 0.60156 1.2031 0.60156 1.8008-0.60156 4.207 0 8.4102-1.2031 12.016-1.2031 3.0039-2.4023 6.0078-4.8086 8.4102-1.8008 1.2031-3.0039 3.0039-4.207 4.8086-1.8008 3.6055-4.8086 6.0078-7.8125 8.4102-0.60156 0.60156-1.8008 1.2031-2.4023 1.8008-0.60156 0.60156-1.2031 1.2031-1.8008 1.2031-3.6055 1.2031-6.6094 3.6055-9.6133 5.4062-3.0039 1.2031-5.4062 3.0039-7.8125 5.4062-1.2031 0.60156-1.8008 1.8008-2.4023 2.4023-1.2031 1.8008-3.0039 2.4023-4.8086 3.0039-1.2031 0-1.8008 0.60156-3.0039 1.2031-3.0039 2.4023-6.6094 4.207-9.6133 6.6094-3.6055 2.4023-6.6094 4.207-10.215 6.0078-10.816 5.4062-21.031 12.617-31.246 19.227-5.4062 3.6055-10.816 7.2109-16.223 10.215-2.4023 1.8008-5.4062 3.0039-7.2109 5.4062-3.6055 1.8008-6.0078 5.4062-9.0117 7.2109-4.8086 3.6055-9.0117 7.8125-13.82 11.418-2.4023 1.8008-3.6055 3.6055-6.0078 5.4062-1.8008 1.2031-3.0039 3.0039-4.8086 3.6055-2.4023 1.2031-4.207 3.0039-6.0078 4.8086-2.4023 2.4023-5.4062 4.207-9.6133 4.207-1.2031 0-1.8008 0.60156-3.0039 1.2031-1.2031 1.2031-2.4023 3.0039-3.6055 4.207-0.60156 0.60156-1.2031 1.2031-2.4023 1.8008-0.60156 0-1.2031 0-1.2031-0.60156 0.60156-5.4062 1.8008-10.215 3.6055-15.02 1.2031-3.0039 2.4023-6.0078 4.207-9.0117 1.2031-2.4023 2.4023-4.207 3.6055-6.6094 3.6055-6.6094 8.4102-13.219 13.219-19.227 0.60156-1.2031 1.8008-1.8008 2.4023-2.4023 3.0039-2.4023 4.8086-4.8086 7.2109-7.2109 5.4062-6.0078 11.418-12.016 17.426-17.426 2.4023-1.8008 4.8086-3.6055 6.6094-5.4062 2.4023-1.8008 4.207-4.207 7.2109-6.0078 2.4023-1.2031 4.207-3.6055 7.2109-4.8086 1.2031-0.60156 2.4023-1.8008 3.6055-3.0039 0 0 0.60156-0.60156 0-1.2031 0-0.60156-0.60156-0.60156-0.60156-0.60156h-1.8008c-1.8008 0.60156-3.6055 0.60156-5.4062 1.2031-1.8008 0.60156-4.207 1.2031-6.0078 1.2031-1.8008 0-4.207 0-6.0078 1.2031-3.6055 0-6.6094 1.8008-10.215 2.4023-3.0039 0.60156-5.4062 1.2031-8.4102 1.8008-6.6094 1.8008-13.219 3.0039-19.227 4.8086-0.60156 0-1.8008 0-2.4023 0.60156-1.2031 0-1.8008 0.60156-3.0039 0.60156-2.4023 0.60156-4.8086 1.8008-7.8125 3.0039-1.8008 0.60156-3.0039 1.2031-4.8086 1.8008-1.2031 0.60156-2.4023 1.2031-3.6055 1.2031-3.6055 0.60156-6.0078 2.4023-9.6133 3.0039-1.8008 0-3.0039 1.2031-4.207 1.8008-4.207 2.4023-9.0117 4.8086-13.219 7.2109-4.207 2.4023-8.4102 4.8086-12.617 7.2109-0.60156 0.60156-1.8008 1.2031-2.4023 1.8008-1.8008 1.2031-3.6055 3.0039-5.4062 4.207-1.8008 1.2031-3.6055 3.0039-4.8086 4.8086-1.8008 2.4023-3.6055 4.207-6.0078 6.0078-3.0039 3.0039-6.6094 6.0078-9.0117 9.0117-2.4023 3.0039-5.4062 6.0078-7.8125 8.4102-3.6055 4.207-7.2109 8.4102-11.418 12.617-0.60156 0.60156-0.60156 1.2031-1.2031 1.2031-2.4023 1.8008-4.207 4.207-6.0078 6.6094-1.8008 2.4023-3.6055 4.8086-6.0078 6.6094-0.60156 0.60156-1.2031 1.8008-1.8008 2.4023-0.60156 0.60156-0.60156 1.8008-1.2031 1.8008-1.8008 1.8086-3.0039 4.8125-4.2031 7.8164-1.8008 4.207-3.6055 7.8125-6.0078 11.418-0.60156 1.2031-1.2031 1.8008-2.4023 3.0039-1.8008 1.8008-2.4023 3.6055-3.0039 6.0078 0 1.2031-0.60156 1.8008-1.2031 3.0039-1.8008 3.0039-3.0039 6.6094-5.4062 9.6133 0 0-0.60156 0.60156-0.60156 1.2031-1.2031 4.207-4.207 7.8125-5.4062 12.016-0.60156 1.8008-1.2031 3.0039-1.8008 4.8086-1.2031 5.4062-3.6055 10.215-5.4062 15.621-1.2031 1.8008-1.2031 3.6055-1.8008 6.0078 0 4.207-1.2031 8.4102-2.4023 12.016-1.2031 4.207-1.8008 7.8125-2.4023 12.016-0.60156 2.4023 0 4.207 0 6.6094-0.60156 1.8008-0.60156 3.6055-1.2031 5.4062-0.61328 4.2109-0.61328 7.8164-0.61328 11.422 0.60156 3.6055 0 7.2109 0.60156 11.418 0 3.6055 0.60156 7.2109 1.2031 10.816 0.60156 2.4023 0.60156 5.4062 1.8008 7.8125 0 0.60156 0.60156 0.60156 0.60156 1.2031 0.60156 4.8086 2.4023 9.0117 4.207 13.219 1.2031 3.6016 1.8008 7.8086 3.6055 12.012 0.60156 0.60156 0.60156 1.8008 0.60156 2.4023 0 0.60156 0 1.2031 0.60156 1.8008 1.8008 3.0039 3.0039 6.0078 4.207 9.6133s3.0039 6.6094 4.207 9.6133c0.60156 1.2031 1.2031 2.4023 2.4023 3.6055 1.8008 4.207 4.8086 7.8125 6.0078 12.016 0 0.60156 0.60156 1.8008 1.2031 2.4023 2.4023 4.207 4.207 7.8125 6.6094 12.016 0.60156 0.60156 0.60156 1.2031 1.2031 2.4023 3.6055 4.207 6.0078 9.6133 9.0117 13.82 3.0039 4.8086 6.0078 9.0117 9.6133 13.82 0.60156 0.60156 1.2031 1.2031 1.2031 1.8008 2.4023 3.6055 4.8086 7.8125 7.8125 10.816 3.6055 3.6055 6.0078 8.4102 9.0117 12.617 0.60156 0.60156 0.60156 1.2031 1.8008 1.8008 4.207 3.6055 6.6094 7.8125 10.215 11.418 0.60156 0.60156 1.2031 1.2031 1.2031 1.8008v0.60156h-0.60156c-1.2031 0-1.8008-0.60156-3.0039-0.60156-0.60156 1.2031 0 1.8008 0 2.4023-1.2031 0-1.8008-0.60156-2.4023-1.8008 1.1953-0.58984 0.59375-1.7891-0.003906-2.9922h1.2031c0.60156 0 1.2031-0.60156 0.60156-1.2031-0.60156-1.2031-1.2031-1.8008-3.0039-2.4023 0.59766 1.2031 0.59766 2.4023 1.1992 3.6055z" fill-rule="evenodd"/>
  <path d="m283.3 559.4c0.60156 0 1.2031 0 1.2031 0.60156h-0.60156s0-0.60156-0.60156-0.60156z" fill-rule="evenodd"/>
  <path d="m291.71 558.8v0c-0.60156-1.2031-0.60156-1.2031 0-0.60156v0.60156z" fill-rule="evenodd"/>
  <path d="m291.71 558.8 0.60156-0.59766z" fill-rule="evenodd"/>
  <use x="168.539062" y="650.128906" xlink:href="#w"/>
  <use x="190.589844" y="650.128906" xlink:href="#f"/>
  <use x="205.40625" y="650.128906" xlink:href="#a"/>
  <use x="225.78125" y="650.128906" xlink:href="#e"/>
  <use x="246.054688" y="650.128906" xlink:href="#d"/>
  <use x="260.414062" y="650.128906" xlink:href="#a"/>
  <use x="280.789062" y="650.128906" xlink:href="#c"/>
  <use x="312.753906" y="650.128906" xlink:href="#j"/>
  <use x="334.261719" y="650.128906" xlink:href="#i"/>
  <use x="364.304688" y="650.128906" xlink:href="#h"/>
  <use x="387.554688" y="650.128906" xlink:href="#v"/>
  <use x="397.851562" y="650.128906" xlink:href="#c"/>
  <use x="419.359375" y="650.128906" xlink:href="#a"/>
  <use x="439.734375" y="650.128906" xlink:href="#g"/>
  <use x="471.582031" y="650.128906" xlink:href="#u"/>
  <use x="494.714844" y="650.128906" xlink:href="#a"/>
  <use x="515.089844" y="650.128906" xlink:href="#t"/>
  <use x="536.597656" y="650.128906" xlink:href="#e"/>
  <use x="556.867188" y="650.128906" xlink:href="#s"/>
  <use x="567.167969" y="650.128906" xlink:href="#e"/>
  <use x="587.441406" y="650.128906" xlink:href="#c"/>
  <use x="608.945312" y="650.128906" xlink:href="#b"/>
  <use x="168.539062" y="680.171875" xlink:href="#r"/>
  <use x="181.609375" y="680.171875" xlink:href="#f"/>
  <use x="196.425781" y="680.171875" xlink:href="#b"/>
  <use x="217.066406" y="680.171875" xlink:href="#q"/>
  <use x="258.832031" y="680.171875" xlink:href="#d"/>
  <use x="273.191406" y="680.171875" xlink:href="#p"/>
  <use x="294.582031" y="680.171875" xlink:href="#a"/>
  <use x="325.414062" y="680.171875" xlink:href="#o"/>
  <use x="350.558594" y="680.171875" xlink:href="#b"/>
  <use x="371.199219" y="680.171875" xlink:href="#n"/>
  <use x="392.585938" y="680.171875" xlink:href="#g"/>
  <use x="424.433594" y="680.171875" xlink:href="#m"/>
  <use x="446.453125" y="680.171875" xlink:href="#f"/>
  <use x="461.269531" y="680.171875" xlink:href="#b"/>
  <use x="481.910156" y="680.171875" xlink:href="#l"/>
  <use x="492.207031" y="680.171875" xlink:href="#a"/>
  <use x="512.582031" y="680.171875" xlink:href="#k"/>
  <use x="530.390625" y="680.171875" xlink:href="#d"/>
 </g>
</svg>
