<?xml version="1.0" encoding="UTF-8"?>
<svg width="700pt" height="700pt" version="1.1" viewBox="0 0 700 700" xmlns="http://www.w3.org/2000/svg" xmlns:xlink="http://www.w3.org/1999/xlink">
 <defs>
  <symbol id="w" overflow="visible">
   <path d="m26.281-1.5781c-1.3555 0.71094-2.7656 1.2422-4.2344 1.5938-1.4688 0.36328-3 0.54688-4.5938 0.54688-4.7617 0-8.5391-1.332-11.328-4-2.7812-2.6641-4.1719-6.2734-4.1719-10.828 0-4.5703 1.3906-8.1914 4.1719-10.859 2.7891-2.6641 6.5664-4 11.328-4 1.5938 0 3.125 0.18359 4.5938 0.54688 1.4688 0.35547 2.8789 0.88281 4.2344 1.5781v5.9219c-1.3672-0.92578-2.7148-1.6094-4.0469-2.0469-1.3242-0.4375-2.7188-0.65625-4.1875-0.65625-2.6367 0-4.7109 0.84375-6.2188 2.5312-1.5 1.6875-2.25 4.0156-2.25 6.9844 0 2.9492 0.75 5.2656 2.25 6.9531 1.5078 1.6797 3.582 2.5156 6.2188 2.5156 1.4688 0 2.8633-0.21094 4.1875-0.64062 1.332-0.4375 2.6797-1.1172 4.0469-2.0469z"/>
  </symbol>
  <symbol id="f" overflow="visible">
   <path d="m19.234-15.609c-0.60547-0.28125-1.2031-0.48828-1.7969-0.625-0.59375-0.13281-1.1875-0.20312-1.7812-0.20312-1.7617 0-3.1211 0.57031-4.0781 1.7031-0.94922 1.125-1.4219 2.7422-1.4219 4.8438v9.8906h-6.8594v-21.453h6.8594v3.5156c0.875-1.3945 1.8828-2.4141 3.0312-3.0625 1.1445-0.64453 2.5156-0.96875 4.1094-0.96875 0.22656 0 0.47656 0.011719 0.75 0.03125 0.26953 0.011719 0.66016 0.054688 1.1719 0.125z"/>
  </symbol>
  <symbol id="a" overflow="visible">
   <path d="m24.719-10.781v1.9531h-16.047c0.16406 1.6055 0.75 2.8125 1.75 3.625 1 0.80469 2.3906 1.2031 4.1719 1.2031 1.4453 0 2.9258-0.21094 4.4375-0.64062 1.5078-0.42578 3.0664-1.0781 4.6719-1.9531v5.2969c-1.625 0.60547-3.25 1.0625-4.875 1.375-1.6172 0.32031-3.2344 0.48438-4.8594 0.48438-3.8867 0-6.9062-0.98438-9.0625-2.9531-2.1484-1.9766-3.2188-4.75-3.2188-8.3125 0-3.5 1.0547-6.25 3.1719-8.25 2.1133-2.0078 5.0195-3.0156 8.7188-3.0156 3.375 0 6.0703 1.0156 8.0938 3.0469 2.0312 2.0312 3.0469 4.7461 3.0469 8.1406zm-7.0625-2.2812c0-1.3008-0.38281-2.3516-1.1406-3.1562-0.75-0.80078-1.7422-1.2031-2.9688-1.2031-1.3359 0-2.418 0.375-3.25 1.125-0.82422 0.75-1.3398 1.8281-1.5469 3.2344z"/>
  </symbol>
  <symbol id="e" overflow="visible">
   <path d="m12.906-9.6562c-1.4297 0-2.5 0.24609-3.2188 0.73438-0.71875 0.48047-1.0781 1.1953-1.0781 2.1406 0 0.86719 0.28516 1.5469 0.85938 2.0469 0.58203 0.49219 1.3906 0.73438 2.4219 0.73438 1.2891 0 2.375-0.46094 3.25-1.3906 0.88281-0.92578 1.3281-2.0859 1.3281-3.4844v-0.78125zm10.484-2.5781v12.234h-6.9219v-3.1875c-0.91797 1.3125-1.9531 2.2656-3.1094 2.8594-1.1484 0.59375-2.543 0.89062-4.1875 0.89062-2.2188 0-4.0234-0.64453-5.4062-1.9375-1.3867-1.3008-2.0781-2.9883-2.0781-5.0625 0-2.5078 0.86328-4.3516 2.5938-5.5312 1.7266-1.1758 4.4453-1.7656 8.1562-1.7656h4.0312v-0.53125c0-1.0938-0.42969-1.8906-1.2812-2.3906-0.85547-0.50781-2.1875-0.76562-4-0.76562-1.4688 0-2.8398 0.15234-4.1094 0.45312-1.2617 0.29297-2.4336 0.73047-3.5156 1.3125v-5.2188c1.4688-0.36328 2.9414-0.63281 4.4219-0.8125 1.4766-0.1875 2.9609-0.28125 4.4531-0.28125 3.8633 0 6.6562 0.76562 8.375 2.2969 1.7188 1.5234 2.5781 4 2.5781 7.4375z"/>
  </symbol>
  <symbol id="d" overflow="visible">
   <path d="m10.781-27.547v6.0938h7.0781v4.9062h-7.0781v9.0938c0 1 0.19531 1.6797 0.59375 2.0312 0.39453 0.34375 1.1797 0.51562 2.3594 0.51562h3.5312v4.9062h-5.8906c-2.7109 0-4.6328-0.5625-5.7656-1.6875-1.125-1.1328-1.6875-3.0547-1.6875-5.7656v-9.0938h-3.4062v-4.9062h3.4062v-6.0938z"/>
  </symbol>
  <symbol id="c" overflow="visible">
   <path d="m17.891-18.312v-11.5h6.9062v29.812h-6.9062v-3.1094c-0.94922 1.2734-1.9922 2.2031-3.125 2.7969-1.1367 0.58203-2.4492 0.875-3.9375 0.875-2.6484 0-4.8203-1.0508-6.5156-3.1562-1.6992-2.1016-2.5469-4.8047-2.5469-8.1094 0-3.3125 0.84766-6.0156 2.5469-8.1094 1.6953-2.1016 3.8672-3.1562 6.5156-3.1562 1.4766 0 2.7852 0.29688 3.9219 0.89062 1.1445 0.59375 2.1914 1.5156 3.1406 2.7656zm-4.5156 13.891c1.4688 0 2.5859-0.53516 3.3594-1.6094 0.76953-1.0703 1.1562-2.6289 1.1562-4.6719 0-2.0508-0.38672-3.6133-1.1562-4.6875-0.77344-1.0703-1.8906-1.6094-3.3594-1.6094-1.4609 0-2.5742 0.53906-3.3438 1.6094-0.77344 1.0742-1.1562 2.6367-1.1562 4.6875 0 2.043 0.38281 3.6016 1.1562 4.6719 0.76953 1.0742 1.8828 1.6094 3.3438 1.6094z"/>
  </symbol>
  <symbol id="j" overflow="visible">
   <path d="m14.719-4.4219c1.4688 0 2.5859-0.53516 3.3594-1.6094 0.76953-1.0703 1.1562-2.6289 1.1562-4.6719 0-2.0508-0.38672-3.6133-1.1562-4.6875-0.77344-1.0703-1.8906-1.6094-3.3594-1.6094s-2.6016 0.54297-3.3906 1.625c-0.78125 1.0859-1.1719 2.6406-1.1719 4.6719s0.39062 3.5898 1.1719 4.6719c0.78906 1.0742 1.9219 1.6094 3.3906 1.6094zm-4.5625-13.891c0.94531-1.25 1.9922-2.1719 3.1406-2.7656 1.1445-0.59375 2.4688-0.89062 3.9688-0.89062 2.6328 0 4.8008 1.0547 6.5 3.1562 1.707 2.0938 2.5625 4.7969 2.5625 8.1094 0 3.3047-0.85547 6.0078-2.5625 8.1094-1.6992 2.1055-3.8672 3.1562-6.5 3.1562-1.5 0-2.8242-0.29688-3.9688-0.89062-1.1484-0.59375-2.1953-1.5195-3.1406-2.7812v3.1094h-6.8594v-29.812h6.8594z"/>
  </symbol>
  <symbol id="i" overflow="visible">
   <path d="m0.48438-21.453h6.8594l5.7656 14.562 4.9062-14.562h6.8438l-9.0156 23.484c-0.90625 2.3828-1.9648 4.0508-3.1719 5-1.2109 0.95703-2.8047 1.4375-4.7812 1.4375h-3.9688v-4.5h2.1562c1.1562 0 2-0.1875 2.5312-0.5625 0.53125-0.36719 0.94141-1.0273 1.2344-1.9844l0.1875-0.59375z"/>
  </symbol>
  <symbol id="h" overflow="visible">
   <path d="m20.953-5.2031h-11.531l-1.8125 5.2031h-7.4219l10.594-28.609h8.7969l10.594 28.609h-7.4062zm-9.6875-5.3125h7.8281l-3.9062-11.375z"/>
  </symbol>
  <symbol id="v" overflow="visible">
   <path d="m3.2969-21.453h6.8594v21.453h-6.8594zm0-8.3594h6.8594v5.5938h-6.8594z"/>
  </symbol>
  <symbol id="g" overflow="visible">
   <path d="m24.859-13.062v13.062h-6.8906v-10c0-1.8516-0.042969-3.1289-0.125-3.8281-0.085938-0.70703-0.22656-1.2266-0.42188-1.5625-0.27344-0.4375-0.64062-0.78125-1.1094-1.0312-0.46094-0.25-0.98047-0.375-1.5625-0.375-1.4297 0-2.5547 0.55469-3.375 1.6562-0.8125 1.1055-1.2188 2.6328-1.2188 4.5781v10.562h-6.8594v-21.453h6.8594v3.1406c1.0312-1.25 2.125-2.1719 3.2812-2.7656 1.1641-0.59375 2.4531-0.89062 3.8594-0.89062 2.4766 0 4.3594 0.76172 5.6406 2.2812 1.2812 1.5117 1.9219 3.7188 1.9219 6.625z"/>
  </symbol>
  <symbol id="u" overflow="visible">
   <path d="m14.078-15.922c1.5508 0 2.6602-0.28516 3.3281-0.85938 0.66406-0.57031 1-1.5195 1-2.8438 0-1.3008-0.33594-2.2266-1-2.7812-0.66797-0.5625-1.7773-0.84375-3.3281-0.84375h-3.0938v7.3281zm-3.0938 5.0938v10.828h-7.375v-28.609h11.25c3.7695 0 6.5312 0.63672 8.2812 1.9062 1.7578 1.2617 2.6406 3.2617 2.6406 6 0 1.8867-0.46094 3.4375-1.375 4.6562-0.90625 1.2109-2.2812 2.1016-4.125 2.6719 1.0078 0.23047 1.9141 0.75 2.7188 1.5625 0.80078 0.8125 1.6094 2.043 2.4219 3.6875l4 8.125h-7.8438l-3.5-7.1094c-0.69922-1.4258-1.4141-2.3984-2.1406-2.9219-0.71875-0.53125-1.6797-0.79688-2.875-0.79688z"/>
  </symbol>
  <symbol id="t" overflow="visible">
   <path d="m17.891-3.6406c-0.94922 1.25-1.9922 2.1719-3.125 2.7656-1.1367 0.58594-2.4492 0.875-3.9375 0.875-2.625 0-4.793-1.0312-6.5-3.0938-1.7109-2.0625-2.5625-4.6914-2.5625-7.8906 0-3.1953 0.85156-5.8203 2.5625-7.875 1.707-2.0508 3.875-3.0781 6.5-3.0781 1.4883 0 2.8008 0.29688 3.9375 0.89062 1.1328 0.58594 2.1758 1.5078 3.125 2.7656v-3.1719h6.9062v19.281c0 3.4453-1.0938 6.082-3.2812 7.9062-2.1797 1.8203-5.3359 2.7344-9.4688 2.7344-1.3438 0-2.6406-0.10547-3.8906-0.3125-1.25-0.19922-2.5078-0.51172-3.7656-0.9375v-5.3438c1.1953 0.6875 2.3672 1.1953 3.5156 1.5312 1.1562 0.34375 2.3125 0.51562 3.4688 0.51562 2.25 0 3.8945-0.49219 4.9375-1.4688 1.0508-0.98047 1.5781-2.5195 1.5781-4.625zm-4.5156-13.359c-1.418 0-2.5234 0.52734-3.3125 1.5781-0.79297 1.0547-1.1875 2.5312-1.1875 4.4375 0 1.9688 0.37891 3.4648 1.1406 4.4844 0.76953 1.0117 1.8906 1.5156 3.3594 1.5156 1.4258 0 2.5352-0.51953 3.3281-1.5625 0.78906-1.0508 1.1875-2.5312 1.1875-4.4375s-0.39844-3.3828-1.1875-4.4375c-0.79297-1.0508-1.9023-1.5781-3.3281-1.5781z"/>
  </symbol>
  <symbol id="s" overflow="visible">
   <path d="m3.2969-29.812h6.8594v29.812h-6.8594z"/>
  </symbol>
  <symbol id="b" overflow="visible">
   <path d="m13.5-17.062c-1.5234 0-2.6836 0.54688-3.4844 1.6406-0.79297 1.0859-1.1875 2.6562-1.1875 4.7188 0 2.0547 0.39453 3.625 1.1875 4.7188 0.80078 1.0938 1.9609 1.6406 3.4844 1.6406 1.5 0 2.6445-0.54688 3.4375-1.6406 0.78906-1.0938 1.1875-2.6641 1.1875-4.7188 0-2.0625-0.39844-3.6328-1.1875-4.7188-0.79297-1.0938-1.9375-1.6406-3.4375-1.6406zm0-4.9062c3.6953 0 6.582 0.99609 8.6562 2.9844 2.0703 1.9922 3.1094 4.75 3.1094 8.2812 0 3.5234-1.0391 6.2812-3.1094 8.2812-2.0742 1.9922-4.9609 2.9844-8.6562 2.9844-3.6992 0-6.5938-0.99219-8.6875-2.9844-2.0859-2-3.125-4.7578-3.125-8.2812 0-3.5312 1.0391-6.2891 3.125-8.2812 2.0938-1.9883 4.9883-2.9844 8.6875-2.9844z"/>
  </symbol>
  <symbol id="r" overflow="visible">
   <path d="m17.422-29.812v4.5h-3.7969c-0.96875 0-1.6484 0.17969-2.0312 0.53125-0.38672 0.35547-0.57812 0.96484-0.57812 1.8281v1.5h5.8594v4.9062h-5.8594v16.547h-6.8594v-16.547h-3.4062v-4.9062h3.4062v-1.5c0-2.332 0.64844-4.0547 1.9531-5.1719 1.3008-1.125 3.3203-1.6875 6.0625-1.6875z"/>
  </symbol>
  <symbol id="q" overflow="visible">
   <path d="m23.188-17.891c0.86328-1.332 1.8906-2.3438 3.0781-3.0312 1.1953-0.69531 2.5156-1.0469 3.9531-1.0469 2.457 0 4.332 0.76172 5.625 2.2812 1.2891 1.5117 1.9375 3.7188 1.9375 6.625v13.062h-6.9062v-11.188c0.019531-0.16406 0.03125-0.33594 0.03125-0.51562 0.007812-0.17578 0.015625-0.42969 0.015625-0.76562 0-1.5195-0.22656-2.6172-0.67188-3.2969-0.44922-0.6875-1.1719-1.0312-2.1719-1.0312-1.3047 0-2.3086 0.53906-3.0156 1.6094-0.71094 1.0742-1.0742 2.625-1.0938 4.6562v10.531h-6.9062v-11.188c0-2.375-0.20312-3.8984-0.60938-4.5781-0.40625-0.6875-1.1367-1.0312-2.1875-1.0312-1.3125 0-2.3281 0.54297-3.0469 1.625-0.71094 1.0742-1.0625 2.6094-1.0625 4.6094v10.562h-6.9062v-21.453h6.9062v3.1406c0.84375-1.2188 1.8047-2.1289 2.8906-2.7344 1.0938-0.61328 2.3008-0.92188 3.625-0.92188 1.4766 0 2.7852 0.35938 3.9219 1.0781 1.1328 0.71094 2 1.7109 2.5938 3z"/>
  </symbol>
  <symbol id="p" overflow="visible">
   <path d="m24.859-13.062v13.062h-6.8906v-9.9688c0-1.875-0.042969-3.1602-0.125-3.8594-0.085938-0.70703-0.22656-1.2266-0.42188-1.5625-0.27344-0.4375-0.64062-0.78125-1.1094-1.0312-0.46094-0.25-0.98047-0.375-1.5625-0.375-1.4297 0-2.5547 0.55469-3.375 1.6562-0.8125 1.1055-1.2188 2.6328-1.2188 4.5781v10.562h-6.8594v-29.812h6.8594v11.5c1.0312-1.25 2.125-2.1719 3.2812-2.7656 1.1641-0.59375 2.4531-0.89062 3.8594-0.89062 2.4766 0 4.3594 0.76172 5.6406 2.2812 1.2812 1.5117 1.9219 3.7188 1.9219 6.625z"/>
  </symbol>
  <symbol id="o" overflow="visible">
   <path d="m3.6094-28.609h8.2344l10.391 19.625v-19.625h7v28.609h-8.2344l-10.406-19.625v19.625h-6.9844z"/>
  </symbol>
  <symbol id="n" overflow="visible">
   <path d="m3.0625-8.3594v-13.094h6.9062v2.1406c0 1.168-0.011719 2.6328-0.03125 4.3906-0.011719 1.75-0.015625 2.918-0.015625 3.5 0 1.7305 0.039063 2.9766 0.125 3.7344 0.09375 0.76172 0.25 1.3125 0.46875 1.6562 0.28125 0.44922 0.64453 0.79297 1.0938 1.0312 0.45703 0.24219 0.98438 0.35938 1.5781 0.35938 1.4258 0 2.5469-0.54688 3.3594-1.6406 0.82031-1.1016 1.2344-2.6289 1.2344-4.5781v-10.594h6.8594v21.453h-6.8594v-3.1094c-1.043 1.2617-2.1406 2.1875-3.2969 2.7812-1.1484 0.59375-2.418 0.89062-3.8125 0.89062-2.4805 0-4.3711-0.75781-5.6719-2.2812-1.293-1.5195-1.9375-3.7344-1.9375-6.6406z"/>
  </symbol>
  <symbol id="m" overflow="visible">
   <path d="m3.6094-28.609h12.234c3.6328 0 6.4258 0.8125 8.375 2.4375 1.9453 1.6172 2.9219 3.918 2.9219 6.9062 0 3-0.97656 5.3086-2.9219 6.9219-1.9492 1.6172-4.7422 2.4219-8.375 2.4219h-4.8594v9.9219h-7.375zm7.375 5.3594v7.9844h4.0781c1.4258 0 2.5312-0.34766 3.3125-1.0469 0.78125-0.69531 1.1719-1.6797 1.1719-2.9531 0-1.2812-0.39062-2.2656-1.1719-2.9531s-1.8867-1.0312-3.3125-1.0312z"/>
  </symbol>
  <symbol id="l" overflow="visible">
   <path d="m3.2969-21.453h6.8594v21.062c0 2.875-0.69531 5.0664-2.0781 6.5781-1.375 1.5195-3.3711 2.2812-5.9844 2.2812h-3.3906v-4.5h1.1875c1.3008 0 2.1914-0.29688 2.6719-0.89062 0.48828-0.58594 0.73438-1.7422 0.73438-3.4688zm0-8.3594h6.8594v5.5938h-6.8594z"/>
  </symbol>
  <symbol id="k" overflow="visible">
   <path d="m20.625-20.781v5.5938c-0.92969-0.64453-1.8594-1.1172-2.7969-1.4219-0.9375-0.30078-1.9141-0.45312-2.9219-0.45312-1.918 0-3.4141 0.55859-4.4844 1.6719-1.0625 1.1172-1.5938 2.6797-1.5938 4.6875 0 2 0.53125 3.5625 1.5938 4.6875 1.0703 1.1172 2.5664 1.6719 4.4844 1.6719 1.0703 0 2.0859-0.16016 3.0469-0.48438 0.96875-0.32031 1.8594-0.79688 2.6719-1.4219v5.625c-1.0742 0.39844-2.1641 0.69141-3.2656 0.89062-1.1055 0.19531-2.2109 0.29688-3.3125 0.29688-3.875 0-6.9062-0.99219-9.0938-2.9844-2.1797-1.9883-3.2656-4.75-3.2656-8.2812 0-3.5391 1.0859-6.3008 3.2656-8.2812 2.1875-1.9883 5.2188-2.9844 9.0938-2.9844 1.125 0 2.2266 0.10156 3.3125 0.29688 1.0938 0.19922 2.1797 0.49609 3.2656 0.89062z"/>
  </symbol>
 </defs>
 <g>
  <path d="m113 523.62v0l-0.78516 0.78516c-0.78516-0.78516-0.78516-0.78516 0.78516-0.78516-0.78516 0 0 0 0 0z" fill-rule="evenodd"/>
  <path d="m468.5 390.22c0.78516 0 1.5703 0 2.3555 0.78516 0 0-0.78516 0.78516-0.78516 1.5703-0.78516 0.78516-0.78516 0.78516-1.5703 0.78516s-0.78516 0-1.5703 0.78516v-2.3555c0.003907 0 0.78906-0.78516 1.5703-1.5703z" fill-rule="evenodd"/>
  <path d="m386.88 237.19c-0.78516 0-1.5703 0.78516-2.3555 0.78516 0-1.5703 0-2.3555 0.78516-3.1406 1.5703-2.3555 2.3555-4.707 2.3555-7.8477 0-0.78516 0.78516-2.3555 1.5703-3.1406 3.1406-4.707 7.0625-9.418 10.203-14.125 2.3555-3.1406 5.4922-6.2773 7.0625-10.988 0-0.78516 1.5703-2.3555 2.3555-3.1406s1.5703-1.5703 2.3555-3.1406c3.9219-8.6328 11.77-13.34 16.48-20.402 3.9219-3.1406 7.8477-7.0625 11.77-10.203 4.707-3.9219 8.6328-7.8477 12.555-11.77 4.707-3.9219 8.6328-8.6328 13.34-12.555 0.78516-0.78516 1.5703-1.5703 2.3555-2.3555 3.1406-4.707 7.0625-7.8477 10.988-12.555 3.9219-4.707 8.6328-9.418 12.555-14.125 2.3555-2.3555 3.1406-5.4922 4.707-7.8477 3.9219-5.4922 7.8477-10.988 12.555-15.695 2.3555-3.1406 3.9219-6.2773 6.2773-9.418 5.4922-10.988 12.555-21.188 20.402-31.391 1.5703-1.5703 3.1406-3.9219 4.707-5.4922 0.78516-0.78516 2.3555-1.5703 2.3555-2.3555 0.78516-3.9219 4.707-6.2773 7.8477-7.0625 5.4922-1.5703 9.418-3.9219 13.34-7.8477 3.9258-2.3477 9.4219-3.1328 14.129-3.918h2.3555c2.3555 0.78516 5.4922 1.5703 7.8477 2.3555 0.78516 0 2.3555 0.78516 3.1406 1.5703 2.3555 0.78516 3.9219 2.3555 7.0625 3.9219 0.78516 1.5703 1.5703 3.1406 2.3555 4.707 0.78516 1.5703 1.5703 3.1406 3.1406 4.707 3.1406 3.9219 5.4922 8.6328 10.203 11.77 2.3555 3.1406 5.4922 5.4922 7.0625 9.418 2.3555 3.9219 5.4922 6.2773 7.8477 10.203 2.3555 3.9219 5.4922 6.2773 8.6328 8.6328 1.5703 1.5703 3.9219 3.1406 3.9219 5.4922 3.9219 3.9219 7.0625 8.6328 8.6328 14.91 0.78516 1.5703 2.3555 3.1406 3.1406 4.707 4.707 6.2773 7.8477 12.555 12.555 18.836 1.5703 2.3555 3.1406 3.9219 5.4922 6.2773 0.78516 0.78516 1.5703 1.5703 2.3555 3.1406 0.78516 3.1406 3.1406 6.2773 4.707 8.6328 0.78516 0.78516 0.78516 1.5703 1.5703 2.3555 0.78516 6.2773 3.9219 11.77 6.2773 18.051 2.3555 7.8477 4.707 14.91 4.707 23.543 0 1.5703 0.78516 2.3555 0.78516 3.9219 0.78516 3.1406 1.5703 6.2773 2.3555 8.6328 0.78516 4.707 2.3555 8.6328 3.9219 13.34 2.3555 3.9219 3.1406 8.6328 2.3555 13.34v3.9219c0 1.5703-0.78516 2.3555-1.5703 3.1406-2.3555 1.5703-4.707 2.3555-7.8477 2.3555-4.707-0.78516-9.418-1.5703-13.34-5.4922-5.4922-3.1406-9.418-7.0625-12.555-13.34-0.78516-0.78516-1.5703-2.3555-2.3555-3.1406-2.3555-3.1406-4.707-6.2773-6.2773-10.203-1.5703-2.3555-2.3555-4.707-4.707-7.0625-1.5703-1.5703-2.3555-3.1406-2.3555-4.707 0-2.3555-0.78516-3.9219-2.3555-6.2773-1.5703-2.3555-2.3555-4.707-3.1406-7.0625-1.5703-3.9219-3.1406-8.6328-4.707-12.555-1.5703-4.707-3.1406-8.6328-5.4922-12.555-3.1406-6.2773-7.0625-12.555-10.203-18.051-0.78516-0.78516-0.78516-1.5703-1.5703-2.3555-1.5703-6.2773-6.2773-10.988-9.418-16.48 0 0-0.78516 0-1.5703-0.78516l-0.78516 0.78516c-0.78516 3.1406-1.5703 6.2773-1.5703 8.6328 0 7.8477-2.3555 15.695-3.1406 23.543-0.78516 7.0625-3.1406 13.34-3.9219 20.402 0 1.5703-0.78516 2.3555-0.78516 3.9219-1.5703 4.707-2.3555 9.418-3.9219 14.125-0.78516 3.1406-1.5703 5.4922-3.1406 8.6328-1.5703 3.1406-2.3555 7.0625-3.1406 10.203-0.78516 4.707-2.3555 10.203-4.707 14.91-1.5703 5.4922-4.707 10.203-7.8477 14.125s-4.707 7.8477-6.2773 12.555c-1.5703 5.4922-4.707 10.203-7.0625 15.695-1.5703 3.1406-2.3555 5.4922-3.9219 7.8477-2.3555 3.9219-3.9219 7.8477-6.2773 11.77-6.2773 10.988-12.555 21.973-19.617 32.176-1.5703 2.3555-2.3555 3.9219-4.707 5.4922-4.707 4.707-7.8477 10.203-12.555 14.91-3.1406 3.1406-5.4922 7.0625-7.8477 10.988-3.1406 5.4922-7.0625 10.988-11.77 15.695-3.9219 3.9219-6.2773 7.8477-9.418 11.77s-6.2773 7.8477-10.988 10.988h-2.3555c-5.4922 0.78516-7.8477 2.3555-7.8477 7.8477v2.3555c-0.78516 0.78516-1.5703 1.5703-2.3555 2.3555v2.3555l-2.3555 2.3555c-0.78516 0.78516-1.5703 1.5703-1.5703 2.3555 0 2.3555-0.78516 3.9219-2.3555 5.4922s-3.1406 3.9219-4.707 5.4922c-6.2773 4.707-10.988 10.203-16.48 15.695l-7.0625 7.0625c-1.5703 1.5703-3.1406 2.3555-3.9219 3.9219-1.5703 1.5703-3.1406 2.3555-3.9219 3.9219-1.5703 3.1406-4.707 5.4922-7.8477 7.8477-4.707 3.9219-10.203 7.0625-14.125 11.77-0.78516 0.78516-1.5703 1.5703-2.3555 1.5703-6.2773 3.1406-12.555 7.8477-18.051 12.555-2.3555 1.5703-4.707 3.1406-7.0625 3.9219-2.3555 0.78516-3.9219 0.78516-6.2773 1.5703-1.5703 0.78516-3.1406 3.1406-4.707 4.707-3.1406 2.3555-6.2773 3.9219-9.418 5.4922-7.8477 3.9219-15.695 8.6328-23.543 11.77-5.4922 2.3555-10.988 4.707-15.695 7.0625-3.9219 1.5703-8.6328 2.3555-13.34 3.9219-1.5703 0.78516-3.1406 0.78516-3.9219 2.3555-1.5703 1.5703-3.1406 3.1406-5.4922 3.1406-7.0625 1.5703-14.125 4.707-20.402 7.0625-8.6328 3.1406-17.266 6.2773-25.898 8.6328-1.5703 0.78516-3.1406 0.78516-4.707 0-2.3555-0.78516-4.707-0.78516-7.0625 0-3.9219 1.5703-7.8477 1.5703-11.77 0-1.5703-0.78516-3.1406-0.78516-5.4922-0.78516-7.8477 2.3555-16.48 2.3555-24.328 5.4922-1.5703 0.78516-3.9219 0.78516-5.4922 1.5703-5.4922 0.78516-10.203 2.3555-14.91 3.9219-1.5703 0.78516-3.1406 0.78516-5.4922 1.5703-2.3555 0.78516-4.707 0.78516-7.0625 1.5703-3.1406 0.78516-6.2773 1.5703-10.203 1.5703h-4.707c-4.707 0-9.418 0.78516-14.91 0h-7.0625c-5.4922 0.78516-10.988 0.78516-16.48-0.78516-3.9219-0.78516-7.0625-1.5703-10.988-0.78516-2.3555 0-4.707 0-7.0625-0.78516l-0.78516-0.78516c0-0.78516 0-1.5703 0.78516-1.5703 4.6953 0.011719 6.2656 0.011719 7.8359 0.011719h7.0625s0.78516 0 0.78516-0.78516v-0.78516c-0.78516-0.78516-2.3555-0.78516-3.1406-0.78516-3.9219 0-8.6328-0.78516-12.555-1.5703-1.5703 0-3.9219 0-5.4922-0.78516-2.3555 0-3.9219 0-6.2773-0.78516-3.9219-0.78516-7.0625-1.5703-10.988-1.5703h-1.5703c-3.1406 0-6.2773-1.5703-10.203-1.5703-3.1406 0.78516-7.0625 0-10.203 0-8.6328 0-17.266-2.3555-25.113-4.707-1.5703-0.78516-3.1406-1.5703-4.707-2.3555-1.5703-1.5703-3.9219-3.1406-5.4922-4.707-2.3555-0.78125-4.707-1.5664-6.2773-3.1367 0.78516-0.78516 0.78516-0.78516 1.5703-0.78516 7.0625 0 14.125 2.3555 21.188 3.1406 6.2773 0.78516 11.77 1.5703 18.051 0.78516 3.9219-0.78516 8.6328-0.78516 12.555-0.78516 3.1406 0 7.0625 0 10.203-0.78516 7.0625-1.5703 13.34-1.5703 20.402 0 3.9219 0.78516 7.0625 0.78516 10.988 0.78516 2.3555 0 5.4922 0 7.8477 0.78516 1.5703 0 2.3555 0 3.1406 0.78516 4.707 3.9219 10.203 2.3555 14.91 2.3555 3.1406 0 6.2773 0 9.418-0.78516 1.5703 0 2.3555 0 3.9219-0.78516 3.1406-1.5703 6.2773-1.5703 8.6328-2.3555s4.707-0.78516 7.0625 0c0.78516 0 1.5703 0 2.3555-0.78516 4.707-2.3555 9.418-3.1406 14.125-3.9219 5.4922-0.78516 10.988-1.5703 16.48-3.1406 6.2773-1.5703 12.555-2.3555 18.836-3.9219 10.203-3.1406 19.617-5.4922 29.82-9.418 2.3555-0.78516 4.707-2.3555 7.0625-3.9219 1.5703-1.5703 3.1406-2.3555 5.4922-3.1406 2.3555-0.78516 3.9219-1.5703 4.707-3.9219 0.78516-1.5703 1.5703-2.3555 3.1406-3.1406 3.1406-3.1406 6.2773-5.4922 10.203-7.8477 0.78516-0.78516 1.5703-0.78516 2.3555-1.5703 5.4922-2.3555 10.203-6.2773 15.695-9.418 1.5703-0.78516 2.3555-2.3555 2.3555-4.707 0-2.3555 1.5703-3.1406 3.1406-4.707 0.78516 0 0.78516-0.78516 1.5703-0.78516 10.988-4.707 20.402-11.77 30.605-18.051 10.988-6.2773 21.188-14.125 31.391-21.973 0.78516-0.78516 2.3555-1.5703 3.1406-2.3555 6.2773-7.0625 14.125-12.555 21.188-18.836 0.78516-0.78516 1.5703-1.5703 2.3555-1.5703 7.0625-7.0625 14.91-13.34 21.973-20.402s13.34-14.125 19.617-21.973c4.707-6.2773 9.418-11.77 14.91-17.266 0-0.78516 0.78516-0.78516 0.78516-1.5703 9.418-13.34 20.402-25.113 28.25-39.238 6.2773-7.0625 10.203-15.695 14.91-24.328 3.1406-5.4922 7.0625-10.988 10.988-15.695 2.3555-2.3555 3.9219-5.4922 4.707-8.6328 2.3555-6.2773 4.707-11.77 7.0625-18.051 3.1406-7.0625 5.4922-14.125 10.203-20.402 2.3555-3.9219 3.9219-8.6328 5.4922-13.34 0.78516-2.3555 1.5703-3.9219 2.3555-6.2773 3.9219-7.8477 7.0625-16.48 8.6328-25.113 2.3555-7.8477 4.707-15.695 7.0625-23.543v-2.3555s0-0.78516-0.78516-0.78516h-0.78516c-0.78516 0.78516-1.5703 0.78516-2.3555 1.5703-5.4922 5.4922-10.988 10.203-17.266 15.695-0.78516 0.78516-1.5703 1.5703-3.1406 2.3555-5.4922 3.9219-10.988 7.8477-14.91 13.34-1.5703 1.5703-2.3555 2.3555-3.9219 3.1406-3.9219 3.1406-8.6328 5.4922-11.77 10.203-0.78516 0.78516-1.5703 1.5703-2.3555 1.5703-7.0625 5.4922-13.34 10.988-21.188 16.48-6.2773 4.707-11.77 9.418-18.836 13.34-1.5703 0.78516-2.3555 1.5703-3.9219 2.3555-6.2773 4.707-14.125 8.6328-20.402 14.125-5.4922 3.9219-11.77 6.2773-18.051 9.418-2.3633 0.78516-4.7188 0-6.2891-2.3555 0 0 0.78516 0 0 0zm-14.125 210.31c0.78516 0 2.3555 0 3.1406-1.5703 0.78516-0.78516 0-0.78516 0-1.5703h-0.78516c-1.5703 0.78906-2.3555 1.5742-2.3555 3.1406zm-13.34 8.6328c0.78516 0 1.5703 0.78516 1.5703-0.78516-0.78516 0.78516-1.5703 0.78516-1.5703 0.78516-3.1406 1.5703-6.2773 3.1406-9.418 4.707-2.3555 1.5703-4.707 3.1406-6.2773 5.4922v0.78516h0.78516c4.707-1.5703 10.988-6.2773 14.125-10.203 0.78516 0.003906 0.78516 0.003906 0.78516-0.78125zm-174.21 72.199h1.5703s0.78516 0 0.78516-0.78516c0-0.78516 0-0.78516-0.78516-1.5703h-0.78516-0.78516c-0.78516 0-2.3555 0.78516-2.3555 1.5703 0 0.78516 0.78516 0.78516 2.3555 0.78516zm207.96-293.5s-0.78516 0 0 0c-0.78516 0.78516 0 0.78516 0 0.78516 0.78516 0 0.78516 0 0-0.78516 0.78516 0 0 0 0 0z" fill-rule="evenodd"/>
  <path d="m222.87 493.8c0.78516 0 0.78516 0.78516 1.5703 0.78516v1.5703c-0.78516 0.78516-1.5703 0.78516-2.3555 0.78516-0.78516 0-1.5703-0.78516-1.5703-1.5703 0.78516-0.78516 1.5703-1.5703 2.3555-1.5703z" fill-rule="evenodd"/>
  <path d="m384.53 237.98c-1.5703 1.5703-3.1406 3.1406-3.1406 5.4922 0 0.78516-0.78516 0.78516-1.5703 0v-0.78516c0-0.78516 0-1.5703 0.78516-2.3555 0.78906-1.5664 2.3594-2.3516 3.9258-2.3516v0z" fill-rule="evenodd"/>
  <use y="667.238281" xlink:href="#w"/>
  <use x="28.796875" y="667.238281" xlink:href="#f"/>
  <use x="48.148438" y="667.238281" xlink:href="#a"/>
  <use x="74.757812" y="667.238281" xlink:href="#e"/>
  <use x="101.234375" y="667.238281" xlink:href="#d"/>
  <use x="119.992188" y="667.238281" xlink:href="#a"/>
  <use x="146.605469" y="667.238281" xlink:href="#c"/>
  <use x="188.351562" y="667.238281" xlink:href="#j"/>
  <use x="216.4375" y="667.238281" xlink:href="#i"/>
  <use x="255.675781" y="667.238281" xlink:href="#h"/>
  <use x="286.042969" y="667.238281" xlink:href="#v"/>
  <use x="299.492188" y="667.238281" xlink:href="#c"/>
  <use x="327.582031" y="667.238281" xlink:href="#a"/>
  <use x="354.191406" y="667.238281" xlink:href="#g"/>
  <use x="395.785156" y="667.238281" xlink:href="#u"/>
  <use x="426" y="667.238281" xlink:href="#a"/>
  <use x="452.613281" y="667.238281" xlink:href="#t"/>
  <use x="480.699219" y="667.238281" xlink:href="#e"/>
  <use x="507.175781" y="667.238281" xlink:href="#s"/>
  <use x="520.628906" y="667.238281" xlink:href="#e"/>
  <use x="547.105469" y="667.238281" xlink:href="#c"/>
  <use x="575.191406" y="667.238281" xlink:href="#b"/>
  <use y="706.472656" xlink:href="#r"/>
  <use x="17.070312" y="706.472656" xlink:href="#f"/>
  <use x="36.421875" y="706.472656" xlink:href="#b"/>
  <use x="63.378906" y="706.472656" xlink:href="#q"/>
  <use x="117.921875" y="706.472656" xlink:href="#d"/>
  <use x="136.679688" y="706.472656" xlink:href="#p"/>
  <use x="164.613281" y="706.472656" xlink:href="#a"/>
  <use x="204.886719" y="706.472656" xlink:href="#o"/>
  <use x="237.726562" y="706.472656" xlink:href="#b"/>
  <use x="264.683594" y="706.472656" xlink:href="#n"/>
  <use x="292.617188" y="706.472656" xlink:href="#g"/>
  <use x="334.210938" y="706.472656" xlink:href="#m"/>
  <use x="362.96875" y="706.472656" xlink:href="#f"/>
  <use x="382.316406" y="706.472656" xlink:href="#b"/>
  <use x="409.273438" y="706.472656" xlink:href="#l"/>
  <use x="422.722656" y="706.472656" xlink:href="#a"/>
  <use x="449.335938" y="706.472656" xlink:href="#k"/>
  <use x="472.59375" y="706.472656" xlink:href="#d"/>
 </g>
</svg>
